<svg width="512" height="512" viewBox="0 0 512 512" fill="none" xmlns="http://www.w3.org/2000/svg">
  <g filter="url(#filter0_d_3872_16930)">
    <path fill-rule="evenodd" clip-rule="evenodd"
      d="M265.405 111.168C299.055 113.372 332.078 127.333 357.797 153.051C383.515 178.77 397.476 211.793 399.68 245.442H304.996C283.131 245.442 265.405 227.717 265.405 205.851V111.168ZM399.621 265.238C397.239 298.592 383.298 331.275 357.797 356.775C332.078 382.494 299.055 396.455 265.405 398.658V304.829C265.405 282.963 283.131 265.238 304.996 265.238H399.621ZM245.61 398.6C212.256 396.218 179.573 382.276 154.072 356.775C128.572 331.275 114.63 298.592 112.248 265.238H206.019C227.884 265.238 245.61 282.963 245.61 304.829V398.6ZM112.189 245.442C114.393 211.793 128.354 178.77 154.072 153.051C179.573 127.55 212.256 113.609 245.61 111.227V205.851C245.61 227.717 227.884 245.442 206.019 245.442H112.189Z"
      fill="white" />
  </g>
  <g filter="url(#filter1_d_3872_16930)">
    <path fill-rule="evenodd" clip-rule="evenodd"
      d="M255.935 416.374C345.107 416.374 417.396 344.086 417.396 254.913C417.396 165.741 345.107 93.452 255.935 93.452C166.762 93.452 94.4734 165.741 94.4734 254.913C94.4734 344.086 166.762 416.374 255.935 416.374ZM255.935 437.58C356.819 437.58 438.601 355.797 438.601 254.913C438.601 154.029 356.819 72.2463 255.935 72.2463C155.05 72.2463 73.2677 154.029 73.2677 254.913C73.2677 355.797 155.05 437.58 255.935 437.58Z"
      fill="white" />
  </g>
  <path
    d="M29 129.891C29 74.1706 74.1706 29 129.891 29H382.109C437.829 29 483 74.1706 483 129.891V382.109C483 437.829 437.829 483 382.109 483H129.891C74.1706 483 29 437.829 29 382.109V129.891Z"
    fill="url(#paint0_linear_3872_16930)" />
  <g style="mix-blend-mode:darken" filter="url(#filter2_i_3872_16930)">
    <circle cx="256" cy="256" r="176" fill="#BD594B" fill-opacity="0.3" />
  </g>
  <g filter="url(#filter3_d_3872_16930)">
    <path fill-rule="evenodd" clip-rule="evenodd"
      d="M264.53 126.528C294.838 128.513 324.583 141.087 347.748 164.252C370.913 187.417 383.487 217.162 385.472 247.47H300.19C280.496 247.47 264.53 231.505 264.53 211.81V126.528ZM385.419 265.3C383.273 295.342 370.716 324.779 347.748 347.748C324.583 370.912 294.838 383.487 264.53 385.472V300.96C264.53 281.265 280.496 265.3 300.19 265.3H385.419ZM246.7 385.419C216.658 383.273 187.221 370.716 164.252 347.748C141.284 324.779 128.727 295.342 126.581 265.3H211.04C230.735 265.3 246.7 281.265 246.7 300.96V385.419ZM126.528 247.47C128.513 217.162 141.087 187.417 164.252 164.252C187.221 141.283 216.658 128.726 246.7 126.581V211.81C246.7 231.505 230.735 247.47 211.04 247.47H126.528Z"
      fill="#FFFAF5" />
  </g>
  <defs>
    <filter id="filter0_d_3872_16930" x="108.189" y="111.168" width="295.49" height="295.49"
      filterUnits="userSpaceOnUse" color-interpolation-filters="sRGB">
      <feFlood flood-opacity="0" result="BackgroundImageFix" />
      <feColorMatrix in="SourceAlpha" type="matrix" values="0 0 0 0 0 0 0 0 0 0 0 0 0 0 0 0 0 0 127 0"
        result="hardAlpha" />
      <feOffset dy="4" />
      <feGaussianBlur stdDeviation="2" />
      <feComposite in2="hardAlpha" operator="out" />
      <feColorMatrix type="matrix" values="0 0 0 0 0.891667 0 0 0 0 0.49739 0 0 0 0 0.189479 0 0 0 1 0" />
      <feBlend mode="normal" in2="BackgroundImageFix" result="effect1_dropShadow_3872_16930" />
      <feBlend mode="normal" in="SourceGraphic" in2="effect1_dropShadow_3872_16930" result="shape" />
    </filter>
    <filter id="filter1_d_3872_16930" x="69.2677" y="72.2463" width="373.334" height="373.334"
      filterUnits="userSpaceOnUse" color-interpolation-filters="sRGB">
      <feFlood flood-opacity="0" result="BackgroundImageFix" />
      <feColorMatrix in="SourceAlpha" type="matrix" values="0 0 0 0 0 0 0 0 0 0 0 0 0 0 0 0 0 0 127 0"
        result="hardAlpha" />
      <feOffset dy="4" />
      <feGaussianBlur stdDeviation="2" />
      <feComposite in2="hardAlpha" operator="out" />
      <feColorMatrix type="matrix" values="0 0 0 0 0.891667 0 0 0 0 0.49739 0 0 0 0 0.189479 0 0 0 1 0" />
      <feBlend mode="normal" in2="BackgroundImageFix" result="effect1_dropShadow_3872_16930" />
      <feBlend mode="normal" in="SourceGraphic" in2="effect1_dropShadow_3872_16930" result="shape" />
    </filter>
    <filter id="filter2_i_3872_16930" x="80" y="80" width="352.75" height="352.75" filterUnits="userSpaceOnUse"
      color-interpolation-filters="sRGB">
      <feFlood flood-opacity="0" result="BackgroundImageFix" />
      <feBlend mode="normal" in="SourceGraphic" in2="BackgroundImageFix" result="shape" />
      <feColorMatrix in="SourceAlpha" type="matrix" values="0 0 0 0 0 0 0 0 0 0 0 0 0 0 0 0 0 0 127 0"
        result="hardAlpha" />
      <feMorphology radius="6" operator="erode" in="SourceAlpha" result="effect1_innerShadow_3872_16930" />
      <feOffset dx="0.75" dy="0.75" />
      <feGaussianBlur stdDeviation="4" />
      <feComposite in2="hardAlpha" operator="arithmetic" k2="-1" k3="1" />
      <feColorMatrix type="matrix" values="0 0 0 0 0.625 0 0 0 0 0.316574 0 0 0 0 0.0729167 0 0 0 0.39 0" />
      <feBlend mode="normal" in2="shape" result="effect1_innerShadow_3872_16930" />
    </filter>
    <filter id="filter3_d_3872_16930" x="114.528" y="118.528" width="282.944" height="282.944"
      filterUnits="userSpaceOnUse" color-interpolation-filters="sRGB">
      <feFlood flood-opacity="0" result="BackgroundImageFix" />
      <feColorMatrix in="SourceAlpha" type="matrix" values="0 0 0 0 0 0 0 0 0 0 0 0 0 0 0 0 0 0 127 0"
        result="hardAlpha" />
      <feOffset dy="4" />
      <feGaussianBlur stdDeviation="6" />
      <feComposite in2="hardAlpha" operator="out" />
      <feColorMatrix type="matrix" values="0 0 0 0 0.525 0 0 0 0 0.271975 0 0 0 0 0.074375 0 0 0 0.6 0" />
      <feBlend mode="normal" in2="BackgroundImageFix" result="effect1_dropShadow_3872_16930" />
      <feBlend mode="normal" in="SourceGraphic" in2="effect1_dropShadow_3872_16930" result="shape" />
    </filter>
    <linearGradient id="paint0_linear_3872_16930" x1="256" y1="29" x2="256" y2="483" gradientUnits="userSpaceOnUse">
      <stop stop-color="#ECB190" />
      <stop offset="1" stop-color="#D8742C" />
    </linearGradient>
  </defs>
</svg>